<?xml version="1.0" encoding="utf-8"?>
<!-- Generator: Adobe Illustrator 16.0.0, SVG Export Plug-In . SVG Version: 6.00 Build 0)  -->
<!DOCTYPE svg PUBLIC "-//W3C//DTD SVG 1.1//EN" "http://www.w3.org/Graphics/SVG/1.1/DTD/svg11.dtd">
<svg version="1.1" id="Layer_1" xmlns="http://www.w3.org/2000/svg" xmlns:xlink="http://www.w3.org/1999/xlink" x="0px" y="0px"
	 width="128px" height="128px" viewBox="0 0 128 128" enable-background="new 0 0 128 128" xml:space="preserve">
<g>
	<g>
		<g>
			<path fill="#282D33" d="M70.258,38.316h-4.02v-3.975c0-8.309,6.807-15.068,15.176-15.068v4.021
				c-6.15,0-11.156,4.956-11.156,11.047V38.316z"/>
		</g>
	</g>
	<g>
		<path fill="#282D33" d="M61.652,54.408h-4.021V14.236c0-5.633-4.629-10.215-10.319-10.215V0c7.907,0,14.339,6.386,14.339,14.236
			V54.408z"/>
	</g>
	<g>
		<path fill="#282D33" d="M63.955,63.831c-3.487,0-6.324-2.821-6.324-6.288V46.227h4.021v11.316c0,1.25,1.033,2.268,2.303,2.268
			c1.266,0,2.299-1.018,2.299-2.268V37.647h4.02v19.896C70.273,61.01,67.439,63.831,63.955,63.831z"/>
	</g>
	<g>
		<g>
			<path fill="#282D33" d="M37.243,27.282h-4.021V14.236C33.222,6.386,39.66,0,47.573,0v4.021c-5.696,0-10.33,4.582-10.33,10.215
				V27.282z"/>
		</g>
	</g>
	<g>
		<path fill="#282D33" d="M96.309,48.005h-4.02V34.342c0-6.092-5.004-11.047-11.154-11.047v-4.021
			c8.367,0,15.174,6.76,15.174,15.068V48.005z"/>
	</g>
	<g>
		<path fill="#282D33" d="M34.613,118.644c-12.847,0-23.788-9.938-24.908-22.627l-0.193-2.188h50.208l-0.193,2.188
			C58.404,108.705,47.461,118.644,34.613,118.644z M14.024,97.85c1.912,9.565,10.557,16.773,20.589,16.773
			c10.032,0,18.68-7.208,20.593-16.773H14.024z"/>
	</g>
	<g>
		<path fill="#282D33" d="M115.693,128H73.199c-1.988,0-3.65-0.84-4.557-2.306c-1.004-1.622-0.967-3.784,0.105-5.933l16.246-32.673
			V67.092h-1.508V51.829h21.918v15.263H103.9v19.999l16.246,32.672c1.07,2.147,1.109,4.309,0.105,5.931
			C119.344,127.159,117.684,128,115.693,128z M87.508,63.071h1.508v24.962l-16.668,33.521c-0.508,1.017-0.471,1.726-0.287,2.024
			c0.225,0.361,0.871,0.401,1.139,0.401h42.494c0.268,0,0.916-0.04,1.141-0.402c0.184-0.299,0.219-1.007-0.287-2.022l-16.666-33.52
			V63.071h1.504V55.85H87.508V63.071z"/>
	</g>
	<g>
		<path fill="#282D33" d="M109.07,118.644H79.822l7.811-15.706h13.629L109.07,118.644z M86.313,114.623h16.268l-3.811-7.664h-8.645
			L86.313,114.623z"/>
	</g>
	<g>
		<g>
			<path fill="#282D33" d="M34.613,128c-18.99,0-34.439-15.326-34.439-34.164c0-15.508,10.278-28.82,25.189-32.91V48.049h-2.11
				v-15.34h22.722v15.34h-2.109v12.876c14.912,4.091,25.189,17.403,25.189,32.91C69.055,112.674,53.604,128,34.613,128z
				 M27.273,44.028h2.11v20.073l-1.567,0.354C13.908,67.601,4.194,79.682,4.194,93.836c0,16.621,13.646,30.144,30.419,30.144
				c16.774,0,30.42-13.522,30.42-30.144c0-14.153-9.713-26.234-23.622-29.38l-1.567-0.354V44.028h2.109V36.73h-14.68V44.028z"/>
		</g>
	</g>
	<g>
		<path fill="#282D33" d="M10.737,24.29c-4.328,0-7.849-3.5-7.849-7.802c0-4.3,3.521-7.798,7.849-7.798
			c4.33,0,7.852,3.498,7.852,7.798C18.588,20.79,15.066,24.29,10.737,24.29z M10.737,12.71c-2.111,0-3.829,1.694-3.829,3.777
			c0,2.085,1.717,3.782,3.829,3.782c2.112,0,3.831-1.696,3.831-3.782C14.567,14.404,12.849,12.71,10.737,12.71z"/>
	</g>
	<g>
		<g>
			<g>
				<rect x="112.506" y="5.161" fill="#282D33" width="4.02" height="5.093"/>
			</g>
		</g>
		<g>
			<g>
				
					<rect x="101.639" y="11.343" transform="matrix(0.8678 0.4969 -0.4969 0.8678 20.4128 -50.0166)" fill="#282D33" width="5.127" height="4.021"/>
			</g>
		</g>
		<g>
			<g>
				
					<rect x="101.967" y="22.47" transform="matrix(0.4964 0.8681 -0.8681 0.4964 74.0929 -77.6563)" fill="#282D33" width="4.021" height="5.124"/>
			</g>
		</g>
		<g>
			<g>
				<rect x="112.056" y="28.519" fill="#282D33" width="4.021" height="5.09"/>
			</g>
		</g>
		<g>
			<g>
				
					<rect x="121.817" y="23.407" transform="matrix(0.8678 0.497 -0.497 0.8678 29.0791 -58.4523)" fill="#282D33" width="5.123" height="4.02"/>
			</g>
		</g>
		<g>
			<g>
				
					<rect x="122.594" y="11.176" transform="matrix(0.4969 0.8678 -0.8678 0.4969 74.615 -101.2225)" fill="#282D33" width="4.021" height="5.126"/>
			</g>
		</g>
	</g>
</g>
</svg>
